<?xml version="1.0" encoding="utf-8"?>
<!-- Generator: Adobe Illustrator 22.1.0, SVG Export Plug-In . SVG Version: 6.00 Build 0)  -->
<svg version="1.1" id="Layer_1" xmlns="http://www.w3.org/2000/svg" xmlns:xlink="http://www.w3.org/1999/xlink" x="0px" y="0px"
	 viewBox="0 0 500 500" style="enable-background:new 0 0 500 500;" xml:space="preserve">
<style type="text/css">
	.st0{fill:#F7941D;}
	.st1{fill:#EF4136;}
</style>
<g>
	<g>
		<g>
			<polygon class="st0" points="227.9,137.2 250,212.7 250.7,18.1 			"/>
		</g>
	</g>
	<g>
		<g>
			<polygon class="st1" points="272.6,136.9 278.4,181.4 307.4,112.5 			"/>
		</g>
	</g>
	<g>
		<g>
			<polygon class="st1" points="345.2,186.3 318.3,221.8 387.1,193 			"/>
		</g>
	</g>
	<g>
		<polygon class="st0" points="362.4,227.5 287,250 481.4,249.9 		"/>
	</g>
	<g>
		<g>
			<polygon class="st1" points="363.2,272.6 318.7,278.4 387.6,307.3 			"/>
		</g>
	</g>
	<g>
		<g>
			<polygon class="st1" points="314.1,345.5 278.5,318.6 307.4,387.4 			"/>
		</g>
	</g>
	<g>
		<polygon class="st0" points="272.9,362.8 250.1,287.3 250.8,481.9 		"/>
	</g>
	<g>
		<g>
			<polygon class="st1" points="227.8,362.6 221.8,318.3 193.1,387 			"/>
		</g>
	</g>
	<g>
		<g>
			<polygon class="st1" points="154.7,313.2 181.5,277.9 112.8,306.6 			"/>
		</g>
	</g>
	<g>
		<polygon class="st0" points="137.2,271.9 212.6,249.8 18.2,249.1 		"/>
	</g>
	<g>
		<g>
			<polygon class="st1" points="137.4,227 181.6,221.3 113,192.2 			"/>
		</g>
	</g>
	<g>
		<g>
			<polygon class="st1" points="313.7,154.9 302.3,197.9 375.5,124.9 			"/>
			<polygon class="st1" points="345.5,314.1 302.3,302.6 375.6,375.9 			"/>
			<polygon class="st1" points="124.5,374.8 186.3,344.9 197.7,301.9 			"/>
			<polygon class="st1" points="125,124 154.9,185.9 197.9,197.4 			"/>
		</g>
	</g>
	<g>
		<g>
			<polygon class="st1" points="186.8,154.5 222.1,181.4 193.4,112.6 			"/>
		</g>
	</g>
</g>
</svg>
