<svg xmlns="http://www.w3.org/2000/svg" xmlns:xlink="http://www.w3.org/1999/xlink" version="1.1" x="0px" y="0px" viewBox="0 0 32 32" style="enable-background:new 0 0 32 32;" xml:space="preserve"><g><path d="M16,23c-0.256,0-0.512-0.098-0.707-0.293l-4-4c-0.391-0.391-0.391-1.023,0-1.414s1.023-0.391,1.414,0L16,20.586   l3.293-3.293c0.391-0.391,1.023-0.391,1.414,0s0.391,1.023,0,1.414l-4,4C16.512,22.902,16.256,23,16,23z"></path><path d="M16,23c-0.552,0-1-0.447-1-1V12c0-0.552,0.448-1,1-1s1,0.448,1,1v10C17,22.553,16.552,23,16,23z"></path><path d="M22,27H10c-0.552,0-1-0.447-1-1s0.448-1,1-1h12c0.553,0,1,0.447,1,1S22.553,27,22,27z"></path><path d="M26.435,32H5.568C4.152,32,3,30.877,3,29.497V8.954c0-0.869,0.353-1.72,0.967-2.335l5.651-5.651   C10.242,0.343,11.072,0,11.954,0h14.48C27.849,0,29,1.122,29,2.501v26.998C29,30.878,27.85,32,26.435,32z M11.954,2   c-0.348,0-0.675,0.135-0.921,0.381L5.381,8.033C5.139,8.275,5,8.611,5,8.954v20.543C5,29.774,5.255,30,5.568,30h20.866   C26.746,30,27,29.775,27,29.499V2.501C27,2.225,26.746,2,26.434,2H11.954z"></path><path d="M10.5,10H7c-0.552,0-1-0.448-1-1s0.448-1,1-1h3.5C10.776,8,11,7.776,11,7.5V4c0-0.552,0.448-1,1-1s1,0.448,1,1v3.5   C13,8.878,11.878,10,10.5,10z"></path></g></svg>