<svg xmlns:dc="http://purl.org/dc/elements/1.1/" xmlns:cc="http://creativecommons.org/ns#" xmlns:rdf="http://www.w3.org/1999/02/22-rdf-syntax-ns#" xmlns:svg="http://www.w3.org/2000/svg" xmlns="http://www.w3.org/2000/svg" xmlns:sodipodi="http://sodipodi.sourceforge.net/DTD/sodipodi-0.dtd" xmlns:inkscape="http://www.inkscape.org/namespaces/inkscape" version="1.1" x="0px" y="0px" viewBox="0 0 100 100"><g transform="translate(0,-952.36218)"><path style="text-indent:0;text-transform:none;direction:ltr;block-progression:tb;baseline-shift:baseline;color:#000000;enable-background:accumulate;" d="m 9.0000002,972.36219 a 3.0003,3.0003 0 0 0 -3,3 l 0,54.00001 a 3.0003,3.0003 0 0 0 3,3 l 81.9999998,0 a 3.0003,3.0003 0 0 0 3,-3 l 0,-54.00001 a 3.0003,3.0003 0 0 0 -3,-3 l -81.9999998,0 z m 8.4999998,6 65,0 L 50,1004.5184 17.5,978.36219 z m -5.5,3.25 36.125,29.06251 a 3.0003,3.0003 0 0 0 3.75,0 L 88,981.61219 l 0,44.75001 -76,0 0,-44.75001 z" fill="#000000" fill-opacity="1" stroke="none" marker="none" visibility="visible" display="inline" overflow="visible"></path></g></svg>