<?xml version="1.0" encoding="utf-8"?>
<!-- Generator: Adobe Illustrator 22.1.0, SVG Export Plug-In . SVG Version: 6.00 Build 0)  -->
<svg version="1.1" id="Layer_1" xmlns="http://www.w3.org/2000/svg" xmlns:xlink="http://www.w3.org/1999/xlink" x="0px" y="0px"
	 viewBox="0 0 50 50" style="enable-background:new 0 0 50 50;" xml:space="preserve">
<g>
	<path d="M25,4.5c6.7,0,7.5,0,10.1,0.1c2.4,0.1,3.8,0.5,4.6,0.9c1.2,0.5,2,1,2.9,1.9c0.9,0.9,1.4,1.7,1.9,2.9
		c0.3,0.9,0.7,2.2,0.9,4.6c0.1,2.6,0.1,3.4,0.1,10.1s0,7.5-0.1,10.1c-0.1,2.4-0.5,3.8-0.9,4.6c-0.5,1.2-1,2-1.9,2.9
		c-0.9,0.9-1.7,1.4-2.9,1.9c-0.9,0.3-2.2,0.7-4.6,0.9c-2.6,0.1-3.4,0.1-10.1,0.1s-7.5,0-10.1-0.1c-2.4-0.1-3.8-0.5-4.6-0.9
		c-1.2-0.5-2-1-2.9-1.9c-0.9-0.9-1.4-1.7-1.9-2.9c-0.3-0.9-0.7-2.2-0.9-4.6C4.5,32.4,4.5,31.7,4.5,25s0-7.5,0.1-10.1
		c0.1-2.4,0.5-3.8,0.9-4.6c0.5-1.2,1-2,1.9-2.9C8.3,6.5,9.1,6,10.2,5.5c0.9-0.3,2.2-0.7,4.6-0.9C17.5,4.5,18.3,4.5,25,4.5 M25,0
		c-6.8,0-7.6,0-10.3,0.2C12,0.3,10.2,0.7,8.6,1.3C7,2,5.6,2.8,4.2,4.2C2.8,5.6,2,7,1.3,8.6c-0.6,1.6-1,3.4-1.2,6.1
		C0,17.3,0,18.2,0,25c0,6.8,0,7.6,0.2,10.3c0.1,2.7,0.5,4.5,1.2,6.1c0.6,1.6,1.5,3,2.9,4.4C5.6,47.2,7,48,8.6,48.7
		c1.6,0.6,3.4,1,6.1,1.2C17.3,49.9,18.2,50,25,50s7.6,0,10.3-0.2c2.7-0.1,4.5-0.5,6.1-1.2c1.6-0.6,3-1.5,4.4-2.9
		c1.4-1.4,2.2-2.8,2.9-4.4c0.6-1.6,1-3.4,1.2-6.1C49.9,32.6,50,31.8,50,25s0-7.6-0.2-10.3c-0.1-2.7-0.5-4.5-1.2-6.1
		c-0.6-1.6-1.5-3-2.9-4.4C44.4,2.8,43,2,41.3,1.3c-1.6-0.6-3.4-1-6.1-1.2C32.6,0,31.8,0,25,0L25,0z"/>
	<path d="M25,12.2c-7.1,0-12.8,5.7-12.8,12.8S17.9,37.8,25,37.8S37.8,32.1,37.8,25S32.1,12.2,25,12.2z M25,33.3
		c-4.6,0-8.3-3.7-8.3-8.3s3.7-8.3,8.3-8.3c4.6,0,8.3,3.7,8.3,8.3S29.6,33.3,25,33.3z"/>
	<circle cx="38.3" cy="11.6" r="3"/>
</g>
</svg>
