<?xml version="1.0" encoding="utf-8"?>
<!-- Generator: Adobe Illustrator 22.1.0, SVG Export Plug-In . SVG Version: 6.00 Build 0)  -->
<svg version="1.1" id="Layer_1" xmlns="http://www.w3.org/2000/svg" xmlns:xlink="http://www.w3.org/1999/xlink" x="0px" y="0px"
	 viewBox="0 0 64 64" style="enable-background:new 0 0 64 64;" xml:space="preserve">
<style type="text/css">
	.st0{fill:#FFFFFF;}
</style>
<rect width="64" height="64"/>
<g>
	<path class="st0" d="M8.6,30.9v0.2c0,0.3,0,0.3,0.2,0.3c0.1,0,0.1,0,0.3-0.2l0.2-0.1L9.3,31l17.4-16.4l0.3-0.2
		c0.5-0.5,1-0.8,1.6-0.8c1.1,0,2,0.9,2,2.1c0,0.7-0.4,1.3-1.1,1.9L16.8,29.7c-0.1,0.1-0.1,0.1-0.2,0.2c-0.2,0.3-0.3,0.3-0.3,0.3
		c-0.1,0.2,0.1,0.3,0.3,0.6l12.5,15.7c0,0.1,0.1,0.1,0.2,0.2c0.7,0.8,0.8,1.1,0.8,1.8c0,1.1-1,2-2.1,2c-0.7,0-1.3-0.3-1.8-0.9
		l-0.2-0.2L13.6,33.7c-0.2-0.3-0.4-0.4-0.5-0.4c-0.1,0-0.1,0-0.2,0.1l-0.2,0.2l-0.1,0.1l-3.8,3.7l-0.1,0.1l-0.1,0.2
		c-0.1,0.2-0.1,0.2-0.1,0.4v0.2v0.1l-0.1,9.3v0.2c0,1.8-0.8,2.7-2.1,2.7c-1.4,0-2-0.8-2-2.5v-0.4l0.1-30.9v-0.3
		c0-1.8,0.7-2.7,2.1-2.7c1.5,0,2.1,0.9,2.1,3.1v0.2V30.9z"/>
	<path class="st0" d="M48,13.7h0.3c6.9,0,11.6,4.1,11.6,10.2c0,2.6-1,4.9-3.1,7.2c-0.2,0.2-0.2,0.2-0.2,0.3c0,0.2,0.1,0.2,0.3,0.4
		c2.9,2.4,4.2,4.9,4.2,8.3c0,4.5-3.1,8.6-7.3,9.8c-1.6,0.4-3.4,0.5-5.6,0.5h-0.3h-9h-0.2c-3,0-3.4-0.3-3.4-2.6v-0.1l0.2-31.3v-0.3
		c-0.1-2.1,0.5-2.6,3.2-2.6h0.2H48z M39.4,45.6v0.2v0.3c0,0.2,0.1,0.2,0.2,0.2c0.1,0.1,0.2,0.1,0.3,0.1H40l8.6,0.1h0.1
		c5.1,0,8.3-2.5,8.3-6.4c0-3.4-2.7-6-6.3-6h-0.2l-9.9-0.1h-0.3h-0.1c-0.6,0-0.8,0.2-0.8,0.6v0.2V45.6z M39.5,29.2v0.2
		c0,0.4,0.1,0.6,0.5,0.6h0.2h7.6h0.3c4.7,0,7.7-2.4,7.7-6.2c0-3.6-2.9-6-7.4-6h-0.2l-7.6-0.1h-0.2h-0.2c-0.7,0-0.7,0.1-0.7,0.8v0.2
		V29.2z"/>
</g>
</svg>
