<?xml version="1.0" encoding="utf-8"?>
<!-- Generator: Adobe Illustrator 22.1.0, SVG Export Plug-In . SVG Version: 6.00 Build 0)  -->
<svg version="1.1" id="Layer_1" xmlns="http://www.w3.org/2000/svg" xmlns:xlink="http://www.w3.org/1999/xlink" x="0px" y="0px"
	 viewBox="0 0 32 32" style="enable-background:new 0 0 32 32;" xml:space="preserve">
<style type="text/css">
	.st0{fill:#808080;}
</style>
<g>
	<path class="st0" d="M16,23c-0.3,0-0.5-0.1-0.7-0.3l-4-4c-0.4-0.4-0.4-1,0-1.4s1-0.4,1.4,0l3.3,3.3l3.3-3.3c0.4-0.4,1-0.4,1.4,0
		s0.4,1,0,1.4l-4,4C16.5,22.9,16.3,23,16,23z"/>
	<path class="st0" d="M16,23c-0.6,0-1-0.4-1-1V12c0-0.6,0.4-1,1-1s1,0.4,1,1v10C17,22.6,16.6,23,16,23z"/>
	<path class="st0" d="M22,27H10c-0.6,0-1-0.4-1-1s0.4-1,1-1h12c0.6,0,1,0.4,1,1S22.6,27,22,27z"/>
	<path class="st0" d="M26.4,32H5.6C4.2,32,3,30.9,3,29.5V9c0-0.9,0.4-1.7,1-2.3L9.6,1c0.6-0.6,1.5-1,2.3-1h14.5
		C27.8,0,29,1.1,29,2.5v27C29,30.9,27.9,32,26.4,32z M12,2c-0.3,0-0.7,0.1-0.9,0.4L5.4,8C5.1,8.3,5,8.6,5,9v20.5
		C5,29.8,5.3,30,5.6,30h20.9c0.3,0,0.6-0.2,0.6-0.5v-27C27,2.2,26.7,2,26.4,2H12z"/>
	<path class="st0" d="M10.5,10H7c-0.6,0-1-0.4-1-1s0.4-1,1-1h3.5C10.8,8,11,7.8,11,7.5V4c0-0.6,0.4-1,1-1s1,0.4,1,1v3.5
		C13,8.9,11.9,10,10.5,10z"/>
</g>
</svg>
