<svg id="Layer_5" data-name="Layer 5" xmlns="http://www.w3.org/2000/svg" viewBox="0 0 200.76 51.68"><defs><style>.cls-1{font-size:24px;font-family:FranklinGothicURW-Hea, FranklinGothic URW;}.cls-1,.cls-9{fill:#fff;}.cls-2{letter-spacing:-0.04em;}.cls-3{letter-spacing:0em;}.cls-4{letter-spacing:0.01em;}.cls-5{font-family:FranklinGothicURW-Lig, FranklinGothic URW;}.cls-6{letter-spacing:0em;}.cls-7{letter-spacing:0em;}.cls-8{letter-spacing:-0.01em;}</style></defs><title>Artboard 18</title><text class="cls-1" transform="translate(63.66 22.55)"><tspan class="cls-2">K</tspan><tspan x="14.76" y="0">yle B</tspan><tspan class="cls-3" x="69.65" y="0">a</tspan><tspan class="cls-4" x="83.78" y="0">t</tspan><tspan x="92.97" y="0">son</tspan><tspan class="cls-5"><tspan x="0" y="25">D</tspan><tspan class="cls-6" x="15.43" y="25">e</tspan><tspan class="cls-7" x="27.96" y="25">s</tspan><tspan class="cls-8" x="39.19" y="25">i</tspan><tspan x="44.25" y="25">gner</tspan></tspan></text><path class="cls-9" d="M47.58,15.85a13.82,13.82,0,0,0-8.12-12.6A13.66,13.66,0,0,0,33.74,2H2.34V50.68h31.4a14.43,14.43,0,0,0,9.48-24.75A13.8,13.8,0,0,0,47.58,15.85ZM6.69,6.35H30.22L6.69,29.88Zm0,40V36l7.67-7.67,18,18ZM43.23,36.25a10,10,0,0,1-4.81,8.6c-.3.18-.6.34-.92.5L17.43,25.28,36.06,6.65a9.48,9.48,0,0,1,4.18,16.11L37,25.86,40.19,29A10,10,0,0,1,43.23,36.25Z"/></svg>