<svg id="Layer_5" data-name="Layer 5" xmlns="http://www.w3.org/2000/svg" viewBox="0 0 200.76 51.68"><title>kb-logo-black</title><path d="M74.1,20.55,71.34,14.5l-1.66,2.35v3.7H65.05v-16h4.63v6.6l4.42-6.6h4.41l-4,5.86,5,10.15Z"/><path d="M86.1,21.56c-.82,2.25-2.12,3.12-4.66,3.12-.5,0-.6,0-2.33-.12V21.25a9.07,9.07,0,0,0,1.66.14c1.46,0,2-.26,2-.91a2.56,2.56,0,0,0-.2-.79L78.34,8.62h5l2,6.36,2.07-6.36h3.41Z"/><path d="M96.54,20.55H91.93v-16h4.61Z"/><path d="M111.25,16.57c-.63,2.64-3,4.22-6.19,4.22-4,0-6.68-2.45-6.68-6a6.66,6.66,0,0,1,1.85-4.61,6.69,6.69,0,0,1,4.71-1.75c3.84,0,6.33,2.55,6.33,6.46,0,.12,0,.41,0,.69h-8c0,.94.07,1.25.34,1.59a1.75,1.75,0,0,0,1.48.62,1.58,1.58,0,0,0,1.8-1.46Zm-4.66-3.39c0-1.44-.53-2-1.65-2s-1.68.67-1.68,2Z"/><path d="M119.26,4.54h8.14a4.8,4.8,0,0,1,3.72,1.3,4.42,4.42,0,0,1,1.13,2.9,3.64,3.64,0,0,1-1,2.52,3.39,3.39,0,0,1-1.73,1,3.59,3.59,0,0,1,3.1,3.74,4.52,4.52,0,0,1-1.78,3.74,7,7,0,0,1-4,.82h-7.64Zm6.8,6.15c1,0,1.56-.51,1.56-1.4S127,8,126,8H123.8v2.72ZM126.2,17c1,0,1.7-.55,1.7-1.44s-.69-1.44-1.87-1.44H123.8V17Z"/><path d="M142.11,20.55a7,7,0,0,1-.17-1.66,4.27,4.27,0,0,1-3.84,1.9c-2.52,0-4.2-1.42-4.2-3.55a3.93,3.93,0,0,1,3-3.67,18.14,18.14,0,0,1,4.82-.77v-.29c0-.94-.38-1.3-1.41-1.3s-1.66.44-1.8,1.3l-4.25-.38a3.91,3.91,0,0,1,1.66-2.57,7.39,7.39,0,0,1,4.53-1.18c2.4,0,4.2.6,5.07,1.66.57.69.69,1.32.69,3.43v4.75a5.63,5.63,0,0,0,.36,2.33ZM141.7,15c-2,.22-3,.84-3,1.9A1,1,0,0,0,139.9,18c1.28,0,1.8-.7,1.8-2.43Z"/><path d="M156,11.67h-2.38v4.39c0,.91.27,1.23,1.09,1.23a5.65,5.65,0,0,0,1.29-.2v3.34a14,14,0,0,1-2.69.26,4.15,4.15,0,0,1-3.24-1,3.17,3.17,0,0,1-.93-2.28,19.6,19.6,0,0,1,0-2V11.67h-1.77V8.62h2l.31-3.81,4.08-.15-.1,4H156Z"/><path d="M160.49,16.66c.29.94,1,1.3,2.5,1.3,1.15,0,1.82-.27,1.82-.72s-.33-.58-2.49-.87a10.06,10.06,0,0,1-3.36-1,3.28,3.28,0,0,1-1.61-2.9c0-2.5,2.21-4.11,5.62-4.11,2.78,0,4.65,1.08,5.45,3.12l-3.56.67a2,2,0,0,0-2.08-1.05c-.84,0-1.47.26-1.47.65a.56.56,0,0,0,.34.45c.26.15.45.19,2.37.41a7.35,7.35,0,0,1,3.39,1,3.47,3.47,0,0,1,1.53,2.93c0,2.64-2.33,4.25-6.16,4.25-3.22,0-5.14-1.18-6-3.62Z"/><path d="M183,14.62c0,3.6-2.76,6.17-6.62,6.17A6.11,6.11,0,0,1,170,14.62c0-3.62,2.74-6.24,6.55-6.24S183,10.9,183,14.62Zm-8.11,0c0,2.45.43,3.36,1.53,3.36a1.24,1.24,0,0,0,1.28-.79,9.81,9.81,0,0,0,.33-2.67c0-2.33-.43-3.19-1.56-3.19S174.92,12.27,174.92,14.6Z"/><path d="M191.79,20.55V13c0-1-.26-1.44-1-1.44-.89,0-1.3.57-1.3,1.77v7.18h-4.68V8.62h4.34V10.3a3.35,3.35,0,0,1,1-1.25,4.56,4.56,0,0,1,2.44-.67,4.32,4.32,0,0,1,2.86,1c.77.72,1,1.42,1,3.53v7.63Z"/><path d="M70.81,29.54c2.49,0,3.93.53,5.23,1.94a8.82,8.82,0,0,1,2,6.05c0,2.84-.86,5.12-2.45,6.51-1.24,1.1-2.52,1.51-4.77,1.51h-5v-16ZM67.33,44.21h3.48c3.74,0,5.64-2.26,5.64-6.68s-1.9-6.64-5.64-6.64H67.33Z"/><path d="M81.56,39.67c0,3.1,1.54,5,4,5A3.48,3.48,0,0,0,89,42.12l1.32.33a4.81,4.81,0,0,1-4.82,3.44c-3.31,0-5.47-2.45-5.47-6.15s2.23-6.36,5.54-6.36A4.6,4.6,0,0,1,89.84,36a7.27,7.27,0,0,1,.72,3.72ZM89,38.54c-.21-2.61-1.41-4-3.48-4a3.74,3.74,0,0,0-3,1.51,4.83,4.83,0,0,0-.91,2.47Z"/><path d="M93.49,42c.36,1.8,1.7,2.73,3.88,2.73,2,0,3.32-.88,3.32-2.3,0-1.15-.72-1.75-2.43-2.09l-2.42-.43c-2.19-.41-3.27-1.46-3.27-3.14,0-2.09,1.71-3.41,4.42-3.41s4.15,1,4.7,3.14l-1.32.29a3.23,3.23,0,0,0-3.45-2.26c-1.71,0-2.83.84-2.83,2.14,0,1,.67,1.58,2,1.82l2.18.39c1.73.31,2.45.57,3,1.17a2.77,2.77,0,0,1,.89,2.16c0,2.31-1.87,3.7-4.94,3.7a5.62,5.62,0,0,1-3.68-1.08,4.24,4.24,0,0,1-1.49-2.52Z"/><path d="M106.33,31.22h-1.64V29.54h1.64Zm-.1,14.33h-1.42V33.72h1.42Z"/><path d="M119.07,33.19h-.36c-1.1,0-1.61.43-1.77,1.58a4.53,4.53,0,0,1,1,2.88,4.05,4.05,0,0,1-4.27,4.25,5.35,5.35,0,0,1-1.66-.29c-.82.2-1.2.58-1.2,1.23,0,.84.5,1.15,1.78,1.17l3.33.05a5.73,5.73,0,0,1,2.4.46,2.54,2.54,0,0,1,1.44,2.3c0,2-2.21,3.32-5.83,3.32-3.36,0-5.28-1.13-5.28-3.1a2.31,2.31,0,0,1,1.85-2.33,1.82,1.82,0,0,1-1.2-1.8,1.94,1.94,0,0,1,1.53-2,4.26,4.26,0,0,1-1.48-3.34,4.12,4.12,0,0,1,4.41-4.2,4.2,4.2,0,0,1,2.4.65c.34-1.54.89-2,2.28-2a2.43,2.43,0,0,1,.6.05Zm-7.27,12c-1.18.45-1.66,1-1.66,1.8,0,1.29,1.35,2,3.84,2,2.79,0,4.25-.72,4.25-2.09,0-1.15-.74-1.56-2.88-1.61l-2.69,0-.41-.05Zm-1-7.54c0,1.87,1.08,3.1,2.78,3.1a2.83,2.83,0,0,0,2.79-3.08,2.8,2.8,0,1,0-5.57,0Z"/><path d="M129,45.55V38c0-2.4-.77-3.48-2.47-3.48-2.16,0-3.72,1.87-3.72,4.49v6.5h-1.42V33.72h1.42V36a4.07,4.07,0,0,1,3.86-2.57A3.47,3.47,0,0,1,129.75,35a5.77,5.77,0,0,1,.62,3.05v7.49Z"/><path d="M134.5,39.67c0,3.1,1.54,5,4,5A3.49,3.49,0,0,0,142,42.12l1.32.33a4.83,4.83,0,0,1-4.83,3.44c-3.31,0-5.47-2.45-5.47-6.15s2.23-6.36,5.54-6.36A4.59,4.59,0,0,1,142.78,36a7.27,7.27,0,0,1,.72,3.72ZM142,38.54c-.22-2.61-1.42-4-3.48-4a3.76,3.76,0,0,0-3,1.51,4.83,4.83,0,0,0-.91,2.47Z"/><path d="M152,34.63a5.88,5.88,0,0,0-.84-.07A2.94,2.94,0,0,0,148.64,36a6.11,6.11,0,0,0-.91,3.12v6.46h-1.42V33.72h1.27v2.73c.75-2.18,1.8-3.07,3.6-3.07a3,3,0,0,1,.84.1Z"/><path d="M47.58,13.85a13.82,13.82,0,0,0-8.12-12.6A13.66,13.66,0,0,0,33.74,0H2.34V48.68h31.4a14.43,14.43,0,0,0,9.48-24.75A13.8,13.8,0,0,0,47.58,13.85ZM6.69,4.35H30.22L6.69,27.88Zm0,40V34l7.67-7.67,18,18ZM43.23,34.25a10,10,0,0,1-4.81,8.6c-.3.18-.6.34-.92.5L17.43,23.28,36.06,4.65a9.48,9.48,0,0,1,4.18,16.11L37,23.86,40.19,27A10,10,0,0,1,43.23,34.25Z"/></svg>