<svg xmlns="http://www.w3.org/2000/svg" xmlns:xlink="http://www.w3.org/1999/xlink" viewBox="0 0 200.76 51.68"><defs><style>.cls-1{fill:url(#linear-gradient);}.cls-2{fill:url(#linear-gradient-2);}.cls-3{fill:url(#linear-gradient-3);}.cls-4{fill:url(#linear-gradient-4);}.cls-5{fill:#fff;}</style><linearGradient id="linear-gradient" x1="0.28" y1="29.64" x2="38.72" y2="29.64" gradientUnits="userSpaceOnUse"><stop offset="0" stop-color="#070b3b"/><stop offset="1" stop-color="#0e156f"/></linearGradient><linearGradient id="linear-gradient-2" x1="0.28" y1="12.81" x2="45.61" y2="12.81" gradientUnits="userSpaceOnUse"><stop offset="0" stop-color="#070b3b"/><stop offset="1" stop-color="#e3121d"/></linearGradient><linearGradient id="linear-gradient-3" x1="0.08" y1="3.81" x2="18.94" y2="21.04" gradientUnits="userSpaceOnUse"><stop offset="0" stop-color="#640c38"/><stop offset="1" stop-color="#d43f56"/></linearGradient><linearGradient id="linear-gradient-4" x1="16.7" y1="25.09" x2="44.46" y2="25.09" gradientUnits="userSpaceOnUse"><stop offset="0" stop-color="#122086"/><stop offset="0.11" stop-color="#1c3491"/><stop offset="0.4" stop-color="#3161a8"/><stop offset="0.65" stop-color="#4082ba"/><stop offset="0.86" stop-color="#4a96c4"/><stop offset="1" stop-color="#4d9dc8"/></linearGradient></defs><title>kb-logo-color</title><g id="Layer_5" data-name="Layer 5"><path class="cls-1" d="M.28,49.92H30.54l.6,0,.6,0h0a14.31,14.31,0,0,0,7-2.13L.28,9.34Z"/><path class="cls-2" d="M31.74,1.14H.28v8.2L15.4,24.47,37.48,2.39A13.76,13.76,0,0,0,31.74,1.14Z"/><path class="cls-3" d="M31.74,1.14H.28V39.59L15.4,24.47,37.48,2.39A13.76,13.76,0,0,0,31.74,1.14Z"/><path class="cls-4" d="M45.61,15A13.85,13.85,0,0,0,37.48,2.39L15.4,24.47,38.72,47.79a14.47,14.47,0,0,0,2.53-22.68A13.82,13.82,0,0,0,45.61,15Z"/></g><g id="Mark_Color" data-name="Mark Color"><path class="cls-5" d="M69.69,21.44,66,15.33,64.28,17.6v3.84H61.34V7h2.94v6.26L68.85,7h3.49l-4.43,5.86,5.29,8.63Z"/><path class="cls-5" d="M77.65,7l2.58,5.4L82.84,7h3.38L81.7,15.52v5.92H78.77V15.52L74.25,7Z"/><path class="cls-5" d="M91.79,19h6.08v2.48h-9V7h2.94Z"/><path class="cls-5" d="M109.51,7v2.5h-6.09V12.7h5.46v2.48h-5.46V19h6.09v2.48h-9V7Z"/><path class="cls-5" d="M123.75,7c3.42,0,5.29,1.22,5.29,3.8a3.28,3.28,0,0,1-1.91,3.09,3.35,3.35,0,0,1,2.37,3.44c0,2.25-1.47,4.16-5.29,4.16H118.9V7Zm-1.91,5.73h2c1.61,0,2.31-.63,2.31-1.66s-.51-1.59-2.63-1.59h-1.63Zm0,6.28H124c1.76,0,2.6-.67,2.6-1.91s-.9-1.89-2.88-1.89h-1.84Z"/><path class="cls-5" d="M131.16,21.44,136.2,7H139l5,14.49h-3.13L140,18.69h-4.85l-.88,2.75ZM136,16.21h3.27l-1.63-5.1Z"/><path class="cls-5" d="M155.35,7v2.5h-4v12h-2.94v-12h-4V7Z"/><path class="cls-5" d="M165.54,10.71a3,3,0,0,0-2.86-1.47c-1.32,0-2,.61-2,1.59,0,1.14.93,1.64,2.86,2.12,3,.76,4.39,1.89,4.39,4.46,0,2.37-1.6,4.22-5,4.22-2.54,0-4.3-.7-5.58-2.38l2.24-1.55a3.62,3.62,0,0,0,3.15,1.45c1.68,0,2.25-.74,2.25-1.62s-.61-1.57-3-2.18c-2.86-.76-4.29-2.12-4.29-4.52s1.52-4.07,5-4.07a5.64,5.64,0,0,1,5.08,2.37Z"/><path class="cls-5" d="M176.23,21.63c-3.26,0-5.55-2-5.55-6.41V13.16c0-4.47,2.29-6.4,5.55-6.4s5.56,1.93,5.56,6.4v2.06C181.79,19.65,179.5,21.63,176.23,21.63Zm-2.61-6.41c0,2.77.9,3.93,2.61,3.93s2.62-1.16,2.62-3.93V13.16c0-2.77-.92-3.92-2.62-3.92s-2.61,1.15-2.61,3.92Z"/><path class="cls-5" d="M196.15,7V21.44H193.7l-5.65-9v9h-2.79V7h2.43L193.36,16V7Z"/><path class="cls-5" d="M61.8,42.44V28h4.41c3.21,0,5.25,1.7,5.25,6.38v1.72c0,4.69-2,6.39-5.25,6.39Zm8.44-6.39V34.33c0-4-1.53-5.25-4-5.25H63V41.3h3.19C68.68,41.3,70.24,40.09,70.24,36.05Z"/><path class="cls-5" d="M84.08,28v1.13H76.77v5.29h6.68v1.14H76.77V41.3h7.31v1.14H75.55V28Z"/><path class="cls-5" d="M95.77,30.89A4.07,4.07,0,0,0,92,29c-2,0-3.32.82-3.32,2.6,0,2.08,1.66,2.6,3.76,3.07,2.73.58,4.53,1.42,4.53,4.15,0,1.85-1.3,3.78-4.76,3.78a5.67,5.67,0,0,1-5.06-2.37l1-.69a4.6,4.6,0,0,0,4.08,1.93c2.58,0,3.54-1.2,3.54-2.6,0-1.75-1-2.59-3.73-3.11s-4.56-1.58-4.56-4.16c0-2,1.32-3.74,4.58-3.74a5,5,0,0,1,4.68,2.38Z"/><path class="cls-5" d="M102.43,42.44h-1.22V28h1.22Z"/><path class="cls-5" d="M117.11,35.36V36c0,4.62-2,6.61-5.23,6.61s-5.14-1.82-5.14-6.51V34.33c0-4.68,2-6.51,5.14-6.51a4.81,4.81,0,0,1,5.1,4.52h-1.19c-.47-2.42-1.89-3.38-3.91-3.38-2.46,0-3.92,1.43-3.92,5.37v1.72c0,4,1.46,5.38,3.92,5.38s3.86-1.39,4-4.93h-3.93V35.36Z"/><path class="cls-5" d="M130.82,28V42.44h-1.17l-7.23-12v12h-1.21V28h1.15l7.24,12.16V28Z"/><path class="cls-5" d="M144.18,28v1.13h-7.31v5.29h6.68v1.14h-6.68V41.3h7.31v1.14h-8.53V28Z"/><path class="cls-5" d="M156.8,42.44l-3.21-6.2a6.18,6.18,0,0,1-1,0h-3.3v6.15h-1.21V28h4.51c3.28,0,5.17,1.43,5.17,4.18a3.73,3.73,0,0,1-3,3.9l3.35,6.41Zm-4.18-7.29c2.54,0,3.95-.86,3.95-3s-1.41-3.05-3.95-3.05h-3.3v6.07Z"/></g></svg>